<?xml version="1.0" encoding="UTF-8"?>
<svg width="146px" height="21px" viewBox="0 0 146 21" version="1.1" xmlns="http://www.w3.org/2000/svg" xmlns:xlink="http://www.w3.org/1999/xlink">
    <!-- Generator: Sketch 55.2 (78181) - https://sketchapp.com -->
    <title>logo</title>
    <desc>Created with Sketch.</desc>
    <g id="Macarons" stroke="none" stroke-width="1" fill="none" fill-rule="evenodd">
        <g id="Macarons-1" transform="translate(-41.000000, -25.000000)" fill-rule="nonzero">
            <g id="Group-3">
                <g id="logo" transform="translate(41.015000, 25.193000)">
                    <path d="M7.10542736e-15,0.464 L5.104,0.464 L10.15,7.888 L15.167,0.464 L20.271,0.464 L20.271,19.807 L14.094,19.807 L14.094,12.847 L10.15,18.647 L6.177,12.847 L6.177,19.807 L7.10542736e-15,19.807 L7.10542736e-15,0.464 Z M3.654,17.487 L3.654,4.176 L10.15,13.63 L16.617,4.176 L16.617,17.487 L17.371,17.487 L17.371,2.784 L16.617,2.784 L10.15,12.325 L3.654,2.784 L2.9,2.784 L2.9,17.487 L3.654,17.487 Z M28.043,0.464 L32.683,0.464 L40.02,19.807 L33.93,19.807 L33.292,18.067 L27.434,18.067 L26.796,19.807 L20.706,19.807 L28.043,0.464 Z M31.668,13.804 L30.363,10.411 L29.058,13.804 L31.668,13.804 Z M25.027,17.487 L25.578,16.037 L35.148,16.037 L35.699,17.487 L36.511,17.487 L30.914,2.784 L29.812,2.784 L24.215,17.487 L25.027,17.487 Z M30.363,3.48 L34.887,15.341 L25.839,15.341 L30.363,3.48 Z M43.674,10.15 C43.674,9.22199536 43.8334984,8.35200406 44.1525,7.54 C44.4715016,6.72799594 44.9209971,6.02233633 45.501,5.423 C46.0810029,4.82366367 46.7866625,4.35000174 47.618,4.002 C48.4493375,3.65399826 49.3773282,3.48 50.402,3.48 C50.9046692,3.48 51.3541647,3.513833 51.7505,3.5815 C52.1468353,3.64916701 52.480332,3.73133285 52.751,3.828 C53.0796683,3.92466715 53.3599988,4.04066599 53.592,4.176 L53.998,3.48 C53.6886651,3.34466599 53.3600017,3.21900058 53.012,3.103 C52.6833317,3.00633285 52.3063355,2.91933372 51.881,2.842 C51.4556645,2.76466628 50.9626695,2.726 50.402,2.726 C49.4159951,2.726 48.4735045,2.89999826 47.5745,3.248 C46.6754955,3.59600174 45.8828368,4.0938301 45.1965,4.7415 C44.5101632,5.38916991 43.9591687,6.17216208 43.5435,7.0905 C43.1278313,8.00883793 42.92,9.02866106 42.92,10.15 C42.92,11.2906724 43.1181647,12.3153288 43.5145,13.224 C43.9108353,14.1326712 44.4569965,14.9108301 45.153,15.5585 C45.8490035,16.2061699 46.6609954,16.7039983 47.589,17.052 C48.5170046,17.4000017 49.5029948,17.574 50.547,17.574 C51.1270029,17.574 51.6489977,17.5256672 52.113,17.429 C52.5770023,17.3323329 52.9733317,17.226 53.302,17.11 C53.6693352,16.974666 53.9979985,16.8200009 54.288,16.646 L53.882,15.95 C53.6306654,16.1240009 53.3406683,16.2689994 53.012,16.385 C52.7219986,16.5010006 52.374002,16.6024996 51.968,16.6895 C51.561998,16.7765004 51.088336,16.82 50.547,16.82 C49.4836613,16.82 48.5266709,16.6460017 47.676,16.298 C46.8253291,15.9499983 46.1051696,15.4763363 45.5155,14.877 C44.9258304,14.2776637 44.4715016,13.5720041 44.1525,12.76 C43.8334984,11.9479959 43.674,11.0780046 43.674,10.15 Z M40.02,10.15 C40.02,8.6033256 40.290664,7.20650624 40.832,5.9595 C41.373336,4.71249377 42.1079954,3.64433778 43.036,2.755 C43.9640046,1.86566222 45.0466605,1.18416904 46.284,0.7105 C47.5213395,0.236830965 48.835993,3.55271368e-15 50.228,3.55271368e-15 C51.3300055,3.55271368e-15 52.3111624,0.10633227 53.1715,0.319 C54.0318376,0.53166773 54.7713302,0.77333198 55.39,1.044 C56.1053369,1.35333488 56.7239974,1.69166483 57.246,2.059 L54.201,7.424 C53.8916651,7.19199884 53.5533352,6.96966773 53.186,6.757 C52.8573317,6.60233256 52.4658356,6.45250073 52.0115,6.3075 C51.5571644,6.16249928 51.0400029,6.09 50.46,6.09 C49.8606637,6.09 49.3096692,6.19633227 48.807,6.409 C48.3043308,6.62166773 47.8645019,6.91166483 47.4875,7.279 C47.1104981,7.64633517 46.8156677,8.07649754 46.603,8.5695 C46.3903323,9.06250247 46.284,9.58933053 46.284,10.15 C46.284,10.7106695 46.3951656,11.2374975 46.6175,11.7305 C46.8398344,12.2235025 47.1443314,12.6536648 47.531,13.021 C47.9176686,13.3883352 48.3719974,13.6783323 48.894,13.891 C49.4160026,14.1036677 49.9863302,14.21 50.605,14.21 C51.2236698,14.21 51.7746643,14.1326674 52.258,13.978 C52.7413358,13.8233326 53.1473317,13.6493343 53.476,13.456 C53.8626686,13.2433323 54.2009986,12.9920015 54.491,12.702 L57.536,18.067 C57.0139974,18.4923355 56.3953369,18.8693317 55.68,19.198 C55.0613302,19.468668 54.3170044,19.7199988 53.447,19.952 C52.5769957,20.1840012 51.5813389,20.3 50.46,20.3 C48.9519925,20.3 47.5600064,20.0535025 46.284,19.5605 C45.0079936,19.0674975 43.9060046,18.3763378 42.978,17.487 C42.0499954,16.5976622 41.3250026,15.5295062 40.803,14.2825 C40.2809974,13.0354938 40.02,11.6580075 40.02,10.15 Z M64.003,0.464 L68.643,0.464 L75.98,19.807 L69.89,19.807 L69.252,18.067 L63.394,18.067 L62.756,19.807 L56.666,19.807 L64.003,0.464 Z M67.628,13.804 L66.323,10.411 L65.018,13.804 L67.628,13.804 Z M60.987,17.487 L61.538,16.037 L71.108,16.037 L71.659,17.487 L72.471,17.487 L66.874,2.784 L65.772,2.784 L60.175,17.487 L60.987,17.487 Z M66.323,3.48 L70.847,15.341 L61.799,15.341 L66.323,3.48 Z" id="Maca" fill="#234C3F"></path>
                    <path d="M82.447,13.079 C83.2010038,13.079 83.9356631,13.0016674 84.651,12.847 L87.406,17.487 L88.305,17.487 L85.405,12.615 C86.4490052,12.2476648 87.2803302,11.6821705 87.899,10.9185 C88.5176698,10.1548295 88.827,9.16400609 88.827,7.946 C88.827,7.09532908 88.6626683,6.35100319 88.334,5.713 C88.0053317,5.07499681 87.5558362,4.53850218 86.9855,4.1035 C86.4151638,3.66849783 85.7433372,3.33983445 84.97,3.1175 C84.1966628,2.89516556 83.3556712,2.784 82.447,2.784 L79.315,2.784 L79.315,17.487 L80.069,17.487 L80.069,13.079 L82.447,13.079 Z M80.069,12.383 L80.069,3.48 L82.447,3.48 C84.2063421,3.48 85.5838284,3.8666628 86.5795,4.64 C87.5751716,5.4133372 88.073,6.51532618 88.073,7.946 C88.073,9.37667382 87.5751716,10.4738295 86.5795,11.2375 C85.5838284,12.0011705 84.2063421,12.383 82.447,12.383 L80.069,12.383 Z M76.415,0.464 L83.085,0.464 C84.3223395,0.464 85.4678281,0.62833169 86.5215,0.957 C87.5751719,1.28566831 88.4886628,1.76899681 89.262,2.407 C90.0353372,3.04500319 90.6394978,3.83282865 91.0745,4.7705 C91.5095022,5.70817136 91.727,6.78599391 91.727,8.004 C91.727,8.9706715 91.591668,9.79232995 91.321,10.469 C91.050332,11.1456701 90.7506683,11.7063311 90.422,12.151 C90.0353314,12.6536692 89.6003358,13.0789983 89.117,13.427 L92.742,19.807 L85.492,19.807 L82.592,14.906 L82.592,19.807 L76.415,19.807 L76.415,0.464 Z M82.592,9.976 L82.911,9.976 C83.6456703,9.976 84.2691641,9.81166831 84.7815,9.483 C85.2938359,9.15433169 85.55,8.6033372 85.55,7.83 C85.55,7.0566628 85.2938359,6.50566831 84.7815,6.177 C84.2691641,5.84833169 83.6456703,5.684 82.911,5.684 L82.592,5.684 L82.592,9.976 Z M92.887,10.15 C92.887,8.75799304 93.1528307,7.44333952 93.6845,6.206 C94.2161693,4.96866048 94.9411621,3.89083793 95.8595,2.9725 C96.7778379,2.05416208 97.8556605,1.32916933 99.093,0.7975 C100.33034,0.265830675 101.644993,3.55271368e-15 103.037,3.55271368e-15 C104.429007,3.55271368e-15 105.74366,0.265830675 106.981,0.7975 C108.21834,1.32916933 109.296162,2.05416208 110.2145,2.9725 C111.132838,3.89083793 111.857831,4.96866048 112.3895,6.206 C112.921169,7.44333952 113.187,8.75799304 113.187,10.15 C113.187,11.542007 112.921169,12.8566605 112.3895,14.094 C111.857831,15.3313395 111.132838,16.4091621 110.2145,17.3275 C109.296162,18.2458379 108.21834,18.9708307 106.981,19.5025 C105.74366,20.0341693 104.429007,20.3 103.037,20.3 C101.644993,20.3 100.33034,20.0341693 99.093,19.5025 C97.8556605,18.9708307 96.7778379,18.2458379 95.8595,17.3275 C94.9411621,16.4091621 94.2161693,15.3313395 93.6845,14.094 C93.1528307,12.8566605 92.887,11.542007 92.887,10.15 Z M95.613,10.15 C95.613,11.1746718 95.8063314,12.1364955 96.193,13.0355 C96.5796686,13.9345045 97.11133,14.72233 97.788,15.399 C98.4646701,16.0756701 99.2524955,16.6073314 100.1515,16.994 C101.050504,17.3806686 102.012328,17.574 103.037,17.574 C104.061672,17.574 105.023496,17.3806686 105.9225,16.994 C106.821504,16.6073314 107.60933,16.0756701 108.286,15.399 C108.96267,14.72233 109.494331,13.9345045 109.881,13.0355 C110.267669,12.1364955 110.461,11.1746718 110.461,10.15 C110.461,9.12532821 110.267669,8.1635045 109.881,7.2645 C109.494331,6.36549551 108.96267,5.57767005 108.286,4.901 C107.60933,4.22432995 106.821504,3.6926686 105.9225,3.306 C105.023496,2.9193314 104.061672,2.726 103.037,2.726 C102.012328,2.726 101.050504,2.9193314 100.1515,3.306 C99.2524955,3.6926686 98.4646701,4.22432995 97.788,4.901 C97.11133,5.57767005 96.5796686,6.36549551 96.193,7.2645 C95.8063314,8.1635045 95.613,9.12532821 95.613,10.15 Z M98.977,10.15 C98.977,10.7106695 99.0833323,11.2374975 99.296,11.7305 C99.5086677,12.2235025 99.7986648,12.6536648 100.166,13.021 C100.533335,13.3883352 100.963498,13.6783323 101.4565,13.891 C101.949502,14.1036677 102.476331,14.21 103.037,14.21 C103.597669,14.21 104.124498,14.1036677 104.6175,13.891 C105.110502,13.6783323 105.540665,13.3883352 105.908,13.021 C106.275335,12.6536648 106.565332,12.2235025 106.778,11.7305 C106.990668,11.2374975 107.097,10.7106695 107.097,10.15 C107.097,9.58933053 106.990668,9.06250247 106.778,8.5695 C106.565332,8.07649754 106.275335,7.64633517 105.908,7.279 C105.540665,6.91166483 105.110502,6.62166773 104.6175,6.409 C104.124498,6.19633227 103.597669,6.09 103.037,6.09 C102.476331,6.09 101.949502,6.19633227 101.4565,6.409 C100.963498,6.62166773 100.533335,6.91166483 100.166,7.279 C99.7986648,7.64633517 99.5086677,8.07649754 99.296,8.5695 C99.0833323,9.06250247 98.977,9.58933053 98.977,10.15 Z M103.037,16.82 C102.108995,16.82 101.243837,16.6460017 100.4415,16.298 C99.6391627,15.9499983 98.933503,15.471503 98.3245,14.8625 C97.715497,14.253497 97.2370017,13.5478373 96.889,12.7455 C96.5409983,11.9431627 96.367,11.0780046 96.367,10.15 C96.367,9.22199536 96.5409983,8.35683735 96.889,7.5545 C97.2370017,6.75216266 97.715497,6.04650305 98.3245,5.4375 C98.933503,4.82849696 99.6391627,4.35000174 100.4415,4.002 C101.243837,3.65399826 102.108995,3.48 103.037,3.48 C103.965005,3.48 104.830163,3.65399826 105.6325,4.002 C106.434837,4.35000174 107.140497,4.82849696 107.7495,5.4375 C108.358503,6.04650305 108.836998,6.75216266 109.185,7.5545 C109.533002,8.35683735 109.707,9.22199536 109.707,10.15 C109.707,11.0780046 109.533002,11.9431627 109.185,12.7455 C108.836998,13.5478373 108.358503,14.253497 107.7495,14.8625 C107.140497,15.471503 106.434837,15.9499983 105.6325,16.298 C104.830163,16.6460017 103.965005,16.82 103.037,16.82 Z M114.782,0.464 L119.857,0.464 L125.193,7.917 L125.193,0.464 L131.254,0.464 L131.254,19.807 L126.15,19.807 L120.843,12.383 L120.843,19.807 L114.782,19.807 L114.782,0.464 Z M118.233,17.487 L118.233,4.089 L127.803,17.487 L128.557,17.487 L128.557,2.784 L127.803,2.784 L127.803,16.182 L118.233,2.784 L117.479,2.784 L117.479,17.487 L118.233,17.487 Z M135.198,17.284 C135.468668,17.3420003 135.758665,17.3903331 136.068,17.429 C136.338668,17.4676669 136.623832,17.5014999 136.9235,17.5305 C137.223168,17.5595001 137.527665,17.574 137.837,17.574 C138.378336,17.574 138.905164,17.5111673 139.4175,17.3855 C139.929836,17.2598327 140.388998,17.0520015 140.795,16.762 C141.201002,16.4719986 141.524832,16.0998356 141.7665,15.6455 C142.008168,15.1911644 142.129,14.6353366 142.129,13.978 C142.129,13.4173305 141.988835,12.8856692 141.7085,12.383 C141.428165,11.8803308 141.070502,11.3970023 140.6355,10.933 C140.200498,10.4689977 139.736502,10.0243355 139.2435,9.599 C138.750498,9.17366454 138.286502,8.74350218 137.8515,8.3085 C137.416498,7.87349783 137.058835,7.43850218 136.7785,7.0035 C136.498165,6.56849783 136.358,6.11900232 136.358,5.655 C136.358,4.95899652 136.580331,4.42250189 137.025,4.0455 C137.469669,3.66849812 138.184995,3.48 139.171,3.48 C139.325667,3.48 139.485166,3.48483329 139.6495,3.4945 C139.813834,3.50416672 139.973333,3.51866657 140.128,3.538 C140.282667,3.55733343 140.437333,3.567 140.592,3.567 L140.592,2.813 C140.456666,2.813 140.311667,2.80333343 140.157,2.784 C140.021666,2.76466657 139.871834,2.75016672 139.7075,2.7405 C139.543166,2.73083329 139.374001,2.726 139.2,2.726 C138.155995,2.726 137.29567,2.96283097 136.619,3.4365 C135.94233,3.91016904 135.604,4.64966164 135.604,5.655 C135.604,6.19633604 135.744165,6.70383097 136.0245,7.1775 C136.304835,7.65116904 136.662498,8.1151644 137.0975,8.5695 C137.532502,9.02383561 137.996498,9.46366454 138.4895,9.889 C138.982502,10.3143355 139.446498,10.7444978 139.8815,11.1795 C140.316502,11.6145022 140.674165,12.0639977 140.9545,12.528 C141.234835,12.9920023 141.375,13.4753308 141.375,13.978 C141.375,14.9060046 141.060836,15.6116643 140.4325,16.095 C139.804164,16.5783358 138.939006,16.82 137.837,16.82 C137.179663,16.82 136.580336,16.7716672 136.039,16.675 C135.748999,16.6363331 135.468668,16.5880003 135.198,16.53 L135.198,17.284 Z M132.762,13.804 C133.187335,13.939334 133.631998,14.0456663 134.096,14.123 C134.482669,14.2196672 134.922498,14.2969997 135.4155,14.355 C135.908502,14.4130003 136.406331,14.442 136.909,14.442 C137.798338,14.442 138.243,14.1133366 138.243,13.456 C138.243,13.2046654 138.107668,12.9485013 137.837,12.6875 C137.566332,12.4264987 137.223169,12.1365016 136.8075,11.8175 C136.391831,11.4984984 135.947169,11.1456686 135.4735,10.759 C134.999831,10.3723314 134.555169,9.92766918 134.1395,9.425 C133.723831,8.92233082 133.380668,8.35683648 133.11,7.7285 C132.839332,7.10016353 132.704,6.38000406 132.704,5.568 C132.704,4.65932879 132.868332,3.85700348 133.197,3.161 C133.525668,2.46499652 133.979997,1.88500232 134.56,1.421 C135.140003,0.95699768 135.821496,0.604167875 136.6045,0.3625 C137.387504,0.120832125 138.223662,3.55271368e-15 139.113,3.55271368e-15 C139.577002,3.55271368e-15 140.040998,0.024166425 140.505,0.0725 C140.969002,0.120833575 141.384665,0.16433314 141.752,0.203 C142.177335,0.26100029 142.592998,0.31899971 142.999,0.377 L142.999,5.8 C142.844333,5.78066657 142.670334,5.76133343 142.477,5.742 C142.322333,5.72266657 142.148334,5.70333343 141.955,5.684 C141.761666,5.66466657 141.558668,5.655 141.346,5.655 C141.229999,5.655 141.085001,5.65983329 140.911,5.6695 C140.736999,5.67916672 140.572667,5.70333314 140.418,5.742 C140.263333,5.78066686 140.128001,5.84833285 140.012,5.945 C139.895999,6.04166715 139.838,6.17699913 139.838,6.351 C139.838,6.50566744 139.968499,6.69899884 140.2295,6.931 C140.490501,7.16300116 140.809498,7.43366512 141.1865,7.743 C141.563502,8.05233488 141.979164,8.40999797 142.4335,8.816 C142.887836,9.22200203 143.303498,9.68599739 143.6805,10.208 C144.057502,10.7300026 144.376499,11.3196634 144.6375,11.977 C144.898501,12.6343366 145.029,13.3689959 145.029,14.181 C145.029,15.0316709 144.893668,15.8291629 144.623,16.5735 C144.352332,17.3178371 143.931836,17.9654972 143.3615,18.5165 C142.791164,19.0675028 142.061338,19.5024984 141.172,19.8215 C140.282662,20.1405016 139.229006,20.3 138.011,20.3 C137.27633,20.3 136.594836,20.266167 135.9665,20.1985 C135.338164,20.130833 134.782336,20.0486672 134.299,19.952 C133.738331,19.8553329 133.226002,19.739334 132.762,19.604 L132.762,13.804 Z" id="rons" fill="#5DAD93"></path>
                </g>
            </g>
        </g>
    </g>
</svg>