<?xml version="1.0" encoding="UTF-8"?>
<svg width="30px" height="30px" viewBox="0 0 30 30" version="1.1" xmlns="http://www.w3.org/2000/svg" xmlns:xlink="http://www.w3.org/1999/xlink">
    <!-- Generator: Sketch 55.2 (78181) - https://sketchapp.com -->
    <title>Combined Shape</title>
    <desc>Created with Sketch.</desc>
    <g id="Macarons" stroke="none" stroke-width="1" fill="none" fill-rule="evenodd">
        <g id="Macarons-1" transform="translate(-132.000000, -830.000000)" fill="#3B8873">
            <g id="Group-6" transform="translate(0.000000, 736.000000)">
                <g id="Group-2" transform="translate(42.000000, 93.000000)">
                    <path d="M90,16 C90,7.71572834 96.7157283,1 105,1 C113.284272,1 120,7.71572834 120,16 C120,24.2842717 113.284272,31 105,31 C96.7157283,31 90,24.2842717 90,16 Z M104.550752,13.1921879 L104.582228,13.7112217 L104.057619,13.6476666 C102.14804,13.4040384 100.479782,12.5778213 99.0633363,11.1902002 L98.3708518,10.5016859 L98.1924845,11.0101273 C97.8147657,12.1435277 98.0560861,13.3404833 98.8430003,14.1455154 C99.2626879,14.5904015 99.1682582,14.6539567 98.4442971,14.3891435 C98.1924845,14.3044033 97.9721485,14.2408481 97.9511642,14.2726257 C97.8777188,14.3467734 98.1295314,15.3106934 98.328883,15.6920243 C98.6016799,16.2216507 99.157766,16.7406846 99.766313,17.0478679 L100.28043,17.291496 L99.6718833,17.3020885 C99.0843207,17.3020885 99.0633363,17.312681 99.1262894,17.5351241 C99.3361332,18.2236384 100.165016,18.9545228 101.088329,19.2722986 L101.738845,19.4947417 L101.172266,19.8337025 C100.332891,20.3209588 99.3466254,20.5963645 98.3603596,20.6175496 C97.888211,20.6281421 97.5,20.6705122 97.5,20.7022898 C97.5,20.8082151 98.7800472,21.4013966 99.5249927,21.6344322 C101.759829,22.3229465 104.414353,22.0263557 106.407869,20.8505852 C107.824315,20.0137755 109.240761,18.3507487 109.901769,16.7406846 C110.258503,15.8826898 110.615237,14.3149958 110.615237,13.5629263 C110.615237,13.0756701 110.646714,13.0121149 111.234277,12.4295259 C111.580519,12.090565 111.905777,11.7198266 111.96873,11.6139013 C112.073652,11.4126433 112.06316,11.4126433 111.528058,11.5927163 C110.636222,11.9104921 110.510316,11.868122 110.950988,11.3914582 C111.276245,11.0524974 111.664456,10.4381308 111.664456,10.2580578 C111.664456,10.2262802 111.507074,10.2792429 111.328706,10.3745756 C111.139847,10.4805009 110.720159,10.6393888 110.405394,10.7347215 L109.838815,10.9147945 L109.324698,10.5652411 C109.041409,10.3745756 108.642706,10.1627251 108.432862,10.0991699 C107.89776,9.95087452 107.079369,9.97205957 106.596729,10.14154 C105.285205,10.6182037 104.456322,11.8469369 104.550752,13.1921879 Z" id="Combined-Shape"></path>
                </g>
            </g>
        </g>
    </g>
</svg>